<svg width="20" height="20" viewBox="0 0 17 16" fill="none" xmlns="http://www.w3.org/2000/svg">
<path fill-rule="evenodd" clip-rule="evenodd" d="M8.18842 2.0157C8.17343 2.02403 8.1536 2.03926 8.1337 2.07312L1.27675 13.7398C1.24108 13.8005 1.2418 13.864 1.27461 13.9231C1.29106 13.9528 1.31163 13.9724 1.32932 13.9833C1.34404 13.9925 1.36303 14 1.39459 14H15.1085C15.1401 14 15.159 13.9925 15.1738 13.9833C15.1915 13.9724 15.212 13.9528 15.2285 13.9231C15.2613 13.864 15.262 13.8005 15.2263 13.7398L8.36939 2.07312C8.34948 2.03926 8.32966 2.02403 8.31467 2.0157C8.29731 2.00605 8.27561 2 8.25154 2C8.22748 2 8.20578 2.00605 8.18842 2.0157ZM9.23151 1.56642C8.78763 0.811193 7.71546 0.811193 7.27158 1.56642L0.414626 13.2331C-0.042407 14.0107 0.506279 15 1.39459 15H15.1085C15.9968 15 16.5455 14.0107 16.0885 13.2331L9.23151 1.56642Z" fill="#CCCFE0"/>
<path d="M7.25159 12C7.25159 11.4477 7.6993 11 8.25159 11C8.80387 11 9.25159 11.4477 9.25159 12C9.25159 12.5523 8.80387 13 8.25159 13C7.6993 13 7.25159 12.5523 7.25159 12Z" fill="#CCCFE0"/>
<path d="M7.34955 5.99504C7.29627 5.46228 7.71464 5 8.25005 5C8.78546 5 9.20382 5.46228 9.15054 5.99504L8.7998 9.50248C8.77155 9.78492 8.53389 10 8.25005 10C7.9662 10 7.72854 9.78492 7.70029 9.50248L7.34955 5.99504Z" fill="#CCCFE0"/>
</svg>
